HIERARCHY
ROOT Hips
{
  OFFSET 5.72205e-005 65.662 3.42586
  CHANNELS 6 Xposition Yposition Zposition Zrotation Xrotation Yrotation
  JOINT Chest
  {
    OFFSET 0 8.7983 -4.7612
    CHANNELS 3 Zrotation Xrotation Yrotation
    JOINT Chest2
    {
      OFFSET 0 8.0291 0.4195
      CHANNELS 3 Zrotation Xrotation Yrotation
      JOINT Chest3
      {
        OFFSET 0 9.9351 -2.2114
        CHANNELS 3 Zrotation Xrotation Yrotation
        JOINT Neck
        {
          OFFSET 0 22.3885 -0.4656
          CHANNELS 3 Zrotation Xrotation Yrotation
          JOINT Head
          {
            OFFSET -0.0001 12.643 3.4389
            CHANNELS 3 Zrotation Xrotation Yrotation
            End Site
            {
              OFFSET 0.0001 17.6655 0.5274
            }
          }
        }
        JOINT LeftCollar
        {
          OFFSET 2.2603 21.606 7.4023
          CHANNELS 3 Zrotation Xrotation Yrotation
          JOINT LeftShoulder
          {
            OFFSET 13.5163 -1.1332 -5.0146
            CHANNELS 3 Zrotation Xrotation Yrotation
            JOINT LeftElbow
            {
              OFFSET -0.0995 -28.05 -0.2431
              CHANNELS 3 Zrotation Xrotation Yrotation
              JOINT LeftWrist
              {
                OFFSET 0.0679 -23.3996 -0.1402
                CHANNELS 3 Zrotation Xrotation Yrotation
                JOINT LeftFinger1
                {
                  OFFSET 0.7932 -9.069 2.5189
                  CHANNELS 3 Zrotation Xrotation Yrotation
                  JOINT LeftFinger11
                  {
                    OFFSET -0.8272 -3.3923 0.5977
                    CHANNELS 3 Zrotation Xrotation Yrotation
                    JOINT LeftFinger12
                    {
                      OFFSET -0.5649 -2.3158 0.4082
                      CHANNELS 3 Zrotation Xrotation Yrotation
                      End Site
                      {
                        OFFSET -0.4919 -1.6479 0.2673
                      }
                    }
                  }
                }
                JOINT LeftFinger2
                {
                  OFFSET 0.9159 -9.2044 0.2193
                  CHANNELS 3 Zrotation Xrotation Yrotation
                  JOINT LeftFinger21
                  {
                    OFFSET 0.0117 -4.1944 -0.0248
                    CHANNELS 3 Zrotation Xrotation Yrotation
                    JOINT LeftFinger22
                    {
                      OFFSET 0.0071 -2.3249 -0.0142
                      CHANNELS 3 Zrotation Xrotation Yrotation
                      End Site
                      {
                        OFFSET -0.1475 -2.0882 0.0028
                      }
                    }
                  }
                }
                JOINT LeftFinger3
                {
                  OFFSET 0.6113 -8.7231 -2.0637
                  CHANNELS 3 Zrotation Xrotation Yrotation
                  JOINT LeftFinger31
                  {
                    OFFSET -0.1927 -3.8059 -0.2383
                    CHANNELS 3 Zrotation Xrotation Yrotation
                    JOINT LeftFinger32
                    {
                      OFFSET -0.1091 -2.1688 -0.1362
                      CHANNELS 3 Zrotation Xrotation Yrotation
                      End Site
                      {
                        OFFSET -0.2358 -1.9176 -0.0906
                      }
                    }
                  }
                }
                JOINT LeftFinger4
                {
                  OFFSET -0.6151 -8.0947 -3.5641
                  CHANNELS 3 Zrotation Xrotation Yrotation
                  JOINT LeftFinger41
                  {
                    OFFSET -0.4882 -2.341 -0.6462
                    CHANNELS 3 Zrotation Xrotation Yrotation
                    JOINT LeftFinger42
                    {
                      OFFSET -0.3575 -1.7167 -0.4742
                      CHANNELS 3 Zrotation Xrotation Yrotation
                      End Site
                      {
                        OFFSET -0.4187 -1.5237 -0.3496
                      }
                    }
                  }
                }
                JOINT LeftFinger0
                {
                  OFFSET -1.42 -1.8761 1.4223
                  CHANNELS 3 Zrotation Xrotation Yrotation
                  JOINT LeftFinger01
                  {
                    OFFSET -1.1471 -3.4929 2.6334
                    CHANNELS 3 Zrotation Xrotation Yrotation
                    JOINT LeftFinger02
                    {
                      OFFSET -0.823 -2.3 1.6571
                      CHANNELS 3 Zrotation Xrotation Yrotation
                      End Site
                      {
                        OFFSET -0.5822 -1.6914 1.1582
                      }
                    }
                  }
                }
              }
            }
          }
        }
        JOINT RightCollar
        {
          OFFSET -2.2603 21.606 7.4023
          CHANNELS 3 Zrotation Xrotation Yrotation
          JOINT RightShoulder
          {
            OFFSET -13.5187 -1.1334 -5.0155
            CHANNELS 3 Zrotation Xrotation Yrotation
            JOINT RightElbow
            {
              OFFSET 0.0994 -28.0499 -0.2431
              CHANNELS 3 Zrotation Xrotation Yrotation
              JOINT RightWrist
              {
                OFFSET -0.0679 -23.3996 -0.1402
                CHANNELS 3 Zrotation Xrotation Yrotation
                JOINT RightFinger1
                {
                  OFFSET -0.7932 -9.0691 2.5189
                  CHANNELS 3 Zrotation Xrotation Yrotation
                  JOINT RightFinger11
                  {
                    OFFSET 0.8272 -3.3923 0.5977
                    CHANNELS 3 Zrotation Xrotation Yrotation
                    JOINT RightFinger12
                    {
                      OFFSET 0.565 -2.3158 0.4082
                      CHANNELS 3 Zrotation Xrotation Yrotation
                      End Site
                      {
                        OFFSET 0.4919 -1.6479 0.2673
                      }
                    }
                  }
                }
                JOINT RightFinger2
                {
                  OFFSET -0.916 -9.2044 0.2193
                  CHANNELS 3 Zrotation Xrotation Yrotation
                  JOINT RightFinger21
                  {
                    OFFSET -0.0117 -4.1944 -0.0248
                    CHANNELS 3 Zrotation Xrotation Yrotation
                    JOINT RightFinger22
                    {
                      OFFSET -0.0071 -2.3249 -0.0142
                      CHANNELS 3 Zrotation Xrotation Yrotation
                      End Site
                      {
                        OFFSET 0.1475 -2.0882 0.0028
                      }
                    }
                  }
                }
                JOINT RightFinger3
                {
                  OFFSET -0.6113 -8.7231 -2.0637
                  CHANNELS 3 Zrotation Xrotation Yrotation
                  JOINT RightFinger31
                  {
                    OFFSET 0.1927 -3.8059 -0.2383
                    CHANNELS 3 Zrotation Xrotation Yrotation
                    JOINT RightFinger32
                    {
                      OFFSET 0.1091 -2.1688 -0.1362
                      CHANNELS 3 Zrotation Xrotation Yrotation
                      End Site
                      {
                        OFFSET 0.2358 -1.9176 -0.0906
                      }
                    }
                  }
                }
                JOINT RightFinger4
                {
                  OFFSET 0.6151 -8.0947 -3.564
                  CHANNELS 3 Zrotation Xrotation Yrotation
                  JOINT RightFinger41
                  {
                    OFFSET 0.4882 -2.341 -0.6462
                    CHANNELS 3 Zrotation Xrotation Yrotation
                    JOINT RightFinger42
                    {
                      OFFSET 0.3574 -1.7166 -0.4742
                      CHANNELS 3 Zrotation Xrotation Yrotation
                      End Site
                      {
                        OFFSET 0.4187 -1.5237 -0.3496
                      }
                    }
                  }
                }
                JOINT RightFinger0
                {
                  OFFSET 1.4199 -1.8761 1.4221
                  CHANNELS 3 Zrotation Xrotation Yrotation
                  JOINT RightFinger01
                  {
                    OFFSET 1.1472 -3.4929 2.6336
                    CHANNELS 3 Zrotation Xrotation Yrotation
                    JOINT RightFinger02
                    {
                      OFFSET 0.8229 -2.3 1.6571
                      CHANNELS 3 Zrotation Xrotation Yrotation
                      End Site
                      {
                        OFFSET 0.5822 -1.6914 1.1582
                      }
                    }
                  }
                }
              }
            }
          }
        }
      }
    }
  }
  JOINT RightHip
  {
    OFFSET -9.412 3.9771 -0.7758
    CHANNELS 3 Zrotation Xrotation Yrotation
    JOINT RightKnee
    {
      OFFSET -0.7531 -40.938 0
      CHANNELS 3 Zrotation Xrotation Yrotation
      JOINT RightAnkle
      {
        OFFSET 0 -40.1986 0
        CHANNELS 3 Zrotation Xrotation Yrotation
        JOINT RightToe
        {
          OFFSET 0 -4.4182 9.239
          CHANNELS 3 Zrotation Xrotation Yrotation
          End Site
          {
            OFFSET 0 0 6.1981
          }
        }
      }
    }
  }
  JOINT LeftHip
  {
    OFFSET 9.4119 3.9773 -0.7758
    CHANNELS 3 Zrotation Xrotation Yrotation
    JOINT LeftKnee
    {
      OFFSET 0.7532 -40.9383 0
      CHANNELS 3 Zrotation Xrotation Yrotation
      JOINT LeftAnkle
      {
        OFFSET 0 -40.1986 0
        CHANNELS 3 Zrotation Xrotation Yrotation
        JOINT LeftToe
        {
          OFFSET 0 -4.4182 9.239
          CHANNELS 3 Zrotation Xrotation Yrotation
          End Site
          {
            OFFSET 0 0 6.1981
          }
        }
      }
    }
  }
}
MOTION
Frames:	5
Frame Time:	0.0333333
5.72205e-005 65.662 3.42586 0 0 -0 0 0 -0 0 0 -0 0 0 -0 0 0 -0 0 0 -0 0 0 -12.5014 88.1196 14.2451 10.6914 -0.00160068 -0.00239207 0.000740045 -8.4365e-005 7.00714e-005 -9.52055e-007 9.93923e-017 -1.98785e-016 -1.59028e-015 9.93923e-017 -5.96354e-016 -1.59028e-015 -9.93923e-017 -5.96354e-016 -1.59028e-015 9.93923e-017 -1.98785e-016 -1.59028e-015 -0.0128176 0.00232552 8.52707e-005 9.93923e-017 5.96354e-016 -0 9.93923e-017 -1.98785e-016 -1.59028e-015 -0.0160551 0.00299681 0.000857156 -2.48481e-016 0 3.18055e-015 9.93923e-017 -1.98785e-016 -1.59028e-015 -0.0125865 0.0031206 0.00282719 0 1.98785e-016 -0 9.93923e-017 -1.98785e-016 -1.59028e-015 9.93923e-017 -5.96354e-016 -1.59028e-015 -9.93923e-017 -5.96354e-016 -1.59028e-015 -0.865644 0.16582 7.03859 -88.0329 10.2057 -10.5567 0.0015593 -0.00248883 -0.000788628 7.87605e-005 4.10553e-005 1.24965e-005 -3.97569e-016 -7.95139e-016 3.18055e-015 -1.98785e-016 -3.97569e-016 3.18055e-015 -1.98785e-016 0 3.18055e-015 -3.97569e-016 -7.95139e-016 3.18055e-015 0.0129473 0.00231697 -8.70038e-005 9.93923e-017 -7.95139e-016 1.59028e-015 -3.97569e-016 -7.95139e-016 3.18055e-015 0.0163314 0.00303369 -0.000872333 3.97569e-016 7.95139e-016 -3.18055e-015 -3.97569e-016 -7.95139e-016 3.18055e-015 0.0145763 0.00367772 -0.00326275 9.93923e-017 -3.97569e-016 -0 -3.97569e-016 -7.95139e-016 3.18055e-015 -1.98785e-016 -3.97569e-016 3.18055e-015 -1.98785e-016 0 3.18055e-015 3.42482 1.32465 -0.0626183 0.000117508 0.717283 0.000978199 -3.4257 -2.04197 -0.0604716 6.47761e-025 0 -0 -3.42483 1.34017 0.0627307 -0.000193936 0.682302 -0.0013703 3.42574 -2.02253 0.0595886 -8.45714e-024 0 -7.40531e-025 
23.6065 4.17959 -7.532 0 66.6644 -0 -0 -1.18612 -0 -0 -2.37225 -0 -0 -2.37225 -0 -1.02031 -4.75714 39.2052 0.231711 3.05223 12.5762 -3.68827e-007 -0.00013803 -12.5014 113.415 -8.5877 48.5324 -71.5515 -77.9692 -78.2517 11.5052 -1.62193 -14.2549 3.46864e-006 7.97652e-006 -9.54371e-007 -1.47667e-005 -5.85647e-006 -1.36077e-005 -4.17448e-015 -9.54166e-015 -2.68359e-015 3.46864e-006 7.97652e-006 -9.54371e-007 -0.0128424 0.00232449 8.09732e-005 -6.08909e-006 -8.82276e-006 -6.32953e-006 3.46864e-006 7.97652e-006 -9.54371e-007 -0.016058 0.00298972 0.000848133 -3.77691e-015 -3.18055e-015 -2.08724e-015 3.46864e-006 7.97652e-006 -9.54371e-007 -0.0126009 0.00312336 0.0028214 1.09332e-015 0 3.37934e-015 3.46864e-006 7.97652e-006 -9.54371e-007 -1.47667e-005 -5.85647e-006 -1.36077e-005 -4.17448e-015 -9.54166e-015 -2.68359e-015 -0.865644 0.165685 7.03859 -136.406 -13.5366 -48.2832 70.9776 -79.1767 77.0458 -12.5294 -1.97505 13.8959 7.65628e-007 1.41984e-006 4.05069e-006 -3.97569e-015 -3.18055e-015 7.95139e-016 -7.65629e-007 -1.41984e-006 -4.05069e-006 7.65628e-007 1.41984e-006 4.05069e-006 0.012939 0.00232221 -9.32019e-005 -0 0 3.18055e-015 7.65628e-007 1.41984e-006 4.05069e-006 0.0163898 0.00304555 -0.00087638 -7.15625e-015 -3.18055e-015 7.95139e-016 7.65628e-007 1.41984e-006 4.05069e-006 0.0145613 0.0036731 -0.00326192 -3.97569e-015 5.08889e-014 -7.95139e-016 7.65628e-007 1.41984e-006 4.05069e-006 -3.97569e-015 -3.18055e-015 7.95139e-016 -7.65629e-007 -1.41984e-006 -4.05069e-006 -1.10374 -2.09967 -0.10871 -0.000270215 13.0985 -1.01436 -3.6891 38.5826 0.615496 6.72292e-007 -4.53831e-008 1.52043e-006 1.10068 -2.18433 0.174614 8.64121e-005 15.6337 1.05494 3.64933 38.3519 -0.566233 3.97569e-016 6.36111e-015 1.59028e-015 
34.2293 -20.0247 -9.99977 -180 83.3366 -180 -0 -1.7199 -0 -0 -3.43979 -0 -0 -3.43978 -0 0.348237 -4.87718 56.9316 -0.0935557 4.16152 18.2621 -1.08951e-006 -0.000111937 -12.5014 123.667 -19.6503 65.413 -162.475 -52.9688 -172.63 16.7132 -2.35571 -20.539 1.59028e-015 -4.77083e-015 -1.98785e-016 2.48481e-016 0 1.98785e-016 -2.92715e-007 -2.09928e-008 1.24651e-006 1.59028e-015 -4.77083e-015 -1.98785e-016 -0.012848 0.0023304 8.85387e-005 -9.75866e-008 1.63078e-006 4.155e-007 1.59028e-015 -4.77083e-015 -1.98785e-016 -0.0160251 0.00299126 0.00085836 -9.75909e-008 1.3617e-008 4.15499e-007 1.59028e-015 -4.77083e-015 -1.98785e-016 -0.012563 0.00311722 0.00282509 -9.75923e-008 6.81183e-009 4.15498e-007 1.59028e-015 -4.77083e-015 -1.98785e-016 2.48481e-016 0 1.98785e-016 -2.92715e-007 -2.09928e-008 1.24651e-006 -0.865643 0.16571 7.03859 -157.2 -25.8381 -65.4278 165.495 -53.1531 174.622 -18.1797 -2.85821 20.0014 1.59028e-015 -2.54444e-014 -0 2.78299e-015 -2.54444e-014 -0 -3.97569e-016 -1.59028e-014 -1.59028e-015 1.59028e-015 -2.54444e-014 -0 0.0129732 0.00232322 -9.40008e-005 1.98785e-015 3.18055e-015 1.59028e-015 1.59028e-015 -2.54444e-014 -0 0.0163352 0.0030344 -0.000879415 3.97569e-016 9.54166e-015 -1.59028e-015 1.59028e-015 -2.54444e-014 -0 0.0146105 0.00368246 -0.00326915 -1.59028e-015 3.18055e-015 6.36111e-015 1.59028e-015 -2.54444e-014 -0 2.78299e-015 -2.54444e-014 -0 -3.97569e-016 -1.59028e-014 -1.59028e-015 -3.10292 -6.28707 -0.0908369 -0.000137004 23.0032 -1.54366 -4.19169 55.1759 1.1619 3.10569e-008 2.79288e-009 4.26514e-007 3.10246 -6.14626 0.188764 0.000133682 26.0812 1.59383 4.11774 55.1762 -1.08978 3.97569e-016 0 -0 
31.8687 -14.7477 -9.67119 0 89.9969 -0 -0 -1.60128 -0 -0 -3.20257 -0 -0 -3.20259 -0 -0.00182969 -5.00244 52.9985 -0.00145196 3.59884 16.9969 -2.50624e-006 -0.000102321 -12.5014 121.452 -17.1641 61.676 -156.657 -61.0124 -166.094 15.5544 -2.19287 -19.1494 -3.97569e-016 -3.18055e-015 -9.93923e-017 -1.2921e-015 -3.18055e-015 -2.98177e-016 -1.39149e-015 -6.36111e-015 -1.98785e-016 -3.97569e-016 -3.18055e-015 -9.93923e-017 -0.0128229 0.00232586 8.29441e-005 -1.49089e-016 -6.36111e-015 4.96962e-016 -3.97569e-016 -3.18055e-015 -9.93923e-017 -0.0160322 0.00299797 0.000855333 5.96354e-016 6.36111e-015 -0 -3.97569e-016 -3.18055e-015 -9.93923e-017 -0.0126325 0.00313219 0.0028312 6.75078e-006 -2.0172e-006 -4.96197e-008 -3.97569e-016 -3.18055e-015 -9.93923e-017 -1.2921e-015 -3.18055e-015 -2.98177e-016 -1.39149e-015 -6.36111e-015 -1.98785e-016 -0.865643 0.165716 7.03859 -152.607 -23.05 -61.5935 160.13 -61.3309 168.638 -16.9236 -2.66297 18.6521 -3.83683e-007 -2.97009e-008 -2.09953e-006 -5.37157e-007 -1.62808e-006 -2.93934e-006 -3.06947e-007 8.37858e-007 -1.67962e-006 -3.83683e-007 -2.97009e-008 -2.09953e-006 0.0129471 0.00231232 -8.72386e-005 -3.83604e-007 -2.10071e-009 -2.09954e-006 -3.83683e-007 -2.97009e-008 -2.09953e-006 0.0163321 0.00303538 -0.000874218 -3.47873e-016 0 9.93923e-017 -3.83683e-007 -2.97009e-008 -2.09953e-006 0.0145582 0.00367364 -0.00325899 5.2181e-016 1.59028e-015 9.93923e-017 -3.83683e-007 -2.97009e-008 -2.09953e-006 -5.37157e-007 -1.62808e-006 -2.93934e-006 -3.06947e-007 8.37858e-007 -1.67962e-006 -2.66069 -5.27284 -0.0967558 -0.000108791 20.7149 -1.42289 -4.03642 51.4924 0.998687 1.59362e-007 2.34067e-008 -9.90101e-007 2.65923 -5.21835 0.187176 0.000101365 23.7496 1.47159 3.9675 51.4003 -0.929009 -1.00283e-007 8.76166e-009 3.65085e-008 
31.8687 -14.7477 -9.67119 0 89.9969 -0 -0 -1.60128 -0 -0 -3.20257 -0 -0 -3.20259 -0 -0.00183026 -5.00244 52.9985 -0.00143644 3.33265 16.9969 -2.50624e-006 -0.000102321 -12.5014 121.452 -17.1641 61.676 -156.657 -61.0124 -166.094 15.5543 -2.19288 -19.1494 1.98785e-016 9.54166e-015 9.93923e-017 1.98785e-016 9.54166e-015 -1.98785e-016 2.98177e-016 9.54166e-015 -3.97569e-016 1.98785e-016 9.54166e-015 9.93923e-017 -0.0127849 0.00232257 8.83295e-005 1.54058e-015 1.27222e-014 -2.98177e-016 1.98785e-016 9.54166e-015 9.93923e-017 -0.0160587 0.00300302 0.000858004 1.18774e-014 6.36111e-015 4.27387e-015 1.98785e-016 9.54166e-015 9.93923e-017 -0.0125902 0.00311855 0.00282542 2.48481e-016 6.36111e-015 -9.93923e-017 1.98785e-016 9.54166e-015 9.93923e-017 1.98785e-016 9.54166e-015 -1.98785e-016 2.98177e-016 9.54166e-015 -3.97569e-016 -0.865643 0.165716 7.03859 -152.607 -23.05 -61.5935 160.13 -61.3309 168.638 -16.9236 -2.66298 18.6521 -4.60419e-007 -2.24375e-008 -2.51943e-006 4.50736e-007 -5.48078e-007 1.29772e-006 -1.31943e-014 0 2.28602e-015 -4.60419e-007 -2.24375e-008 -2.51943e-006 0.0129271 0.00231052 -8.27084e-005 -1.21507e-014 -6.36111e-015 2.28602e-015 -4.60419e-007 -2.24375e-008 -2.51943e-006 0.0163464 0.00303626 -0.000872056 2.48481e-017 0 9.93923e-017 -4.60419e-007 -2.24375e-008 -2.51943e-006 0.0145723 0.003676 -0.00325726 -1.26974e-014 -1.59028e-015 2.28602e-015 -4.60419e-007 -2.24375e-008 -2.51943e-006 4.50736e-007 -5.48078e-007 1.29772e-006 -1.31943e-014 0 2.28602e-015 -2.66069 -5.27284 -0.0967558 -0.000108791 20.7149 -1.42289 -4.03642 51.4924 0.998687 -2.64834e-031 9.54166e-015 1.59028e-015 2.65923 -5.21835 0.187176 0.000101365 23.7496 1.47159 3.9675 51.4003 -0.929006 -3.97569e-016 6.36111e-015 -1.59028e-015 
